# xmcd
#
# Track frame offsets:
#	150
#	18529
#	30680
#	53432
#
# Disc length: 968 seconds
#
# Revision: 0
# Processed by: cddbd v1.5.2PL0 Copyright (c) Steve Scherf et al.
# Submitted via: audiograbber 1.83.01
#
DISCID=2603c604
DTITLE=Walt Evans - 4 Singles From Country Dreams
DYEAR=2007
DGENRE=Country
TTITLE0=Not on Earth
TTITLE1=Thats All that Matters
TTITLE2=Looking Back
TTITLE3=If You Ain't First
EXTD=
EXTT0=
EXTT1=
EXTT2=
EXTT3=
PLAYORDER=
